# xmcd
#
# Track frame offsets:
#	182
#	12597
#	26125
#	37195
#	49472
#	61327
#	72822
#	88832
#	100430
#	114327
#	129670
#	145737
#	159202
#	169240
#	183565
#	199997
#	214440
#	238682
#	253165
#	265995
#
# Disc length: 3777 seconds
#
# Revision: 3
# Processed by: cddbd v1.5.2PL0 Copyright (c) Steve Scherf et al.
# Submitted via: audiograbber 1.83.01
#
DISCID=380ebf14
DTITLE=Dionne Warwick - Hidden Gems
DYEAR=1992
DGENRE=Pop
TTITLE0=I Smiled Yesterday
TTITLE1=Wishin' And Hopin'
TTITLE2=Unlucky
TTITLE3=Make It Easy On Yourself
TTITLE4=I Cry Alone
TTITLE5=Make The Music Play
TTITLE6=Any Old Time Of Day
TTITLE7=(They Long To Be) Close To You
TTITLE8=In The Land Of Make Believe
TTITLE9=How Many Days Of Sadness
TTITLE10=You Can Have Him
TTITLE11=Here I Am
TTITLE12=This Little Light
TTITLE13=What The World Needs Now Is Love
TTITLE14=Let Me Be Lonely
TTITLE15=Who Is Gonna Love Me?
TTITLE16=This Girl's In Love With You
TTITLE17=Slaves
TTITLE18=The Look Of Love
TTITLE19=Let Me Go To Him
EXTD=
EXTT0=
EXTT1=
EXTT2=
EXTT3=
EXTT4=
EXTT5=
EXTT6=
EXTT7=
EXTT8=
EXTT9=
EXTT10=
EXTT11=
EXTT12=
EXTT13=
EXTT14=
EXTT15=
EXTT16=
EXTT17=
EXTT18=
EXTT19=
PLAYORDER=
